<?xml version="1.0" standalone="no"?>
<!DOCTYPE svg PUBLIC "-//W3C//DTD SVG 20010904//EN"
 "http://www.w3.org/TR/2001/REC-SVG-20010904/DTD/svg10.dtd">
<svg version="1.0" xmlns="http://www.w3.org/2000/svg"
 width="128.000000pt" height="128.000000pt" viewBox="0 0 128.000000 128.000000"
 preserveAspectRatio="xMidYMid meet">

<g transform="translate(0.000000,128.000000) scale(0.100000,-0.100000)"
fill="#000000" stroke="none">
<path d="M90 1116 c0 -2 8 -10 18 -17 15 -13 16 -12 3 4 -13 16 -21 21 -21 13z"/>
<path d="M1084 1098 l-19 -23 25 20 c14 11 27 21 29 22 2 2 0 3 -6 3 -5 0 -18
-10 -29 -22z"/>
<path d="M1161 1117 c2 -1 13 -9 24 -17 19 -14 19 -14 6 3 -7 9 -18 17 -24 17
-6 0 -8 -1 -6 -3z"/>
<path d="M150 1070 c0 -5 5 -10 10 -10 6 0 10 5 10 10 0 6 -4 10 -10 10 -5 0
-10 -4 -10 -10z"/>
<path d="M201 1033 c7 -12 15 -20 18 -17 3 2 -3 12 -13 22 -17 16 -18 16 -5
-5z"/>
<path d="M533 1041 c-47 -8 -45 -7 -61 -36 -8 -15 -19 -19 -50 -16 -34 2 -43
-2 -58 -23 -10 -17 -14 -36 -11 -55 5 -25 1 -32 -34 -57 -56 -38 -96 -92 -132
-177 -56 -131 -36 -289 49 -373 40 -41 42 -45 33 -78 -11 -39 -3 -59 54 -133
18 -23 40 -53 50 -67 10 -14 25 -26 33 -26 11 0 6 13 -18 46 l-33 46 23 15
c28 19 28 54 0 79 -21 19 -21 19 -13 -1 23 -59 -7 -85 -51 -44 -17 16 -24 33
-24 62 0 34 2 38 18 31 44 -19 149 -54 165 -54 19 0 23 -15 7 -25 -17 -11 -11
-41 13 -62 30 -28 85 -55 97 -48 14 9 50 81 51 102 0 10 10 -6 21 -35 12 -30
27 -56 35 -59 15 -6 96 31 113 52 9 11 8 19 -4 37 -9 12 -16 25 -16 29 0 4 21
12 48 19 91 22 126 44 146 88 18 40 39 57 57 46 24 -15 -3 -103 -38 -123 -25
-13 -9 -25 15 -12 25 13 66 96 58 116 -3 8 7 38 22 67 25 48 27 62 27 163 0
102 -2 114 -29 165 -16 30 -36 65 -46 77 -22 29 -99 93 -111 93 -20 0 -7 -19
30 -44 116 -80 167 -274 112 -418 -18 -47 -27 -58 -45 -58 -23 0 -66 -37 -66
-57 0 -21 -231 -56 -310 -47 l-45 5 28 -16 c30 -17 33 -25 15 -43 -15 -15 -48
3 -48 27 0 17 -12 20 -92 26 -193 15 -246 36 -299 121 -27 44 -43 168 -29 230
24 108 102 221 186 270 15 10 17 14 7 25 -31 32 -2 86 40 75 34 -8 34 -30 2
-72 -14 -18 -25 -35 -25 -38 0 -10 65 -15 238 -21 183 -6 262 0 262 19 0 7
-13 25 -30 41 -35 34 -39 60 -9 68 25 7 63 -28 55 -49 -3 -8 -9 -21 -12 -29
-3 -8 -2 -15 3 -15 11 0 33 44 33 65 0 27 -38 55 -74 55 -25 0 -36 5 -41 19
-3 11 -12 21 -19 24 -24 10 -231 16 -273 8z m252 -31 c27 -10 39 -65 18 -85
-19 -19 -16 -25 10 -25 13 0 32 -9 42 -20 18 -20 17 -20 -91 -21 -295 -2 -364
4 -316 30 12 7 24 29 32 61 13 54 17 59 64 71 36 10 208 2 241 -11z m117 -781
c-24 -10 -48 -17 -52 -14 -5 3 -11 1 -14 -4 -9 -14 -66 -22 -87 -11 -28 15
-23 30 9 30 15 -1 52 3 82 8 93 16 111 13 62 -9z m-395 -3 c18 -1 32 -5 30
-11 -3 -16 -119 -9 -152 10 -30 16 -30 16 30 9 33 -4 75 -8 92 -8z m239 -52
c24 -19 44 -41 44 -48 0 -7 -17 -22 -39 -34 -36 -20 -40 -21 -52 -5 -28 33
-36 76 -19 100 8 12 17 23 19 23 2 0 24 -16 47 -36z m-160 9 c0 -10 6 -18 16
-18 23 0 23 -11 2 -57 -15 -33 -20 -37 -43 -32 -14 4 -37 17 -50 30 -22 20
-23 25 -10 40 14 17 69 54 80 54 4 0 6 -8 5 -17z"/>
<path d="M500 920 c-11 -7 -7 -10 18 -10 20 0 31 4 27 10 -8 13 -26 13 -45 0z"/>
<path d="M1196 1015 c-9 -26 -7 -32 5 -12 6 10 9 21 6 23 -2 3 -7 -2 -11 -11z"/>
<path d="M1070 1011 c0 -10 29 -36 34 -30 1 2 -6 12 -16 22 -10 9 -18 13 -18
8z"/>
<path d="M1157 960 c-9 -11 -12 -22 -7 -25 5 -3 14 4 20 16 15 28 8 33 -13 9z"/>
<path d="M189 943 c-13 -16 -12 -17 4 -4 16 13 21 21 13 21 -2 0 -10 -8 -17
-17z"/>
<path d="M473 750 c-33 -13 -29 -32 5 -24 39 10 72 23 72 29 0 8 -53 5 -77 -5z"/>
<path d="M756 751 c5 -5 27 -12 49 -16 37 -6 39 -5 21 9 -21 17 -87 23 -70 7z"/>
<path d="M457 632 c-22 -24 -21 -55 1 -75 23 -21 41 -21 70 -1 24 17 30 62 10
82 -18 18 -63 14 -81 -6z m62 -16 c9 -10 9 -16 1 -21 -16 -10 -40 2 -40 20 0
19 24 20 39 1z"/>
<path d="M746 634 c-24 -23 -20 -61 8 -80 52 -33 111 31 70 77 -21 23 -57 25
-78 3z m62 -21 c5 -17 -26 -29 -40 -15 -6 6 -7 15 -3 22 9 14 37 9 43 -7z"/>
<path d="M312 528 c-14 -14 -16 -38 -3 -38 10 0 26 39 19 46 -2 2 -10 -2 -16
-8z"/>
<path d="M342 510 c-10 -17 -10 -20 3 -20 8 0 15 2 15 4 0 2 3 11 6 20 9 23
-9 20 -24 -4z"/>
<path d="M381 516 c-8 -9 -11 -19 -7 -23 9 -9 29 13 24 27 -2 8 -8 7 -17 -4z"/>
<path d="M422 518 c-14 -14 -16 -38 -3 -38 10 0 26 39 19 46 -2 2 -10 -2 -16
-8z"/>
<path d="M852 518 c-15 -15 -16 -38 -2 -38 12 0 23 25 18 40 -2 7 -7 7 -16 -2z"/>
<path d="M626 505 c-3 -8 -12 -12 -21 -9 -8 3 -15 2 -15 -2 0 -11 38 -74 44
-74 18 0 39 17 47 39 13 32 12 37 -7 33 -8 -2 -17 4 -20 13 -8 19 -20 19 -28
0z m29 -45 c0 -7 -6 -15 -12 -17 -8 -3 -13 4 -13 17 0 13 5 20 13 18 6 -3 12
-11 12 -18z"/>
<path d="M887 513 c-4 -3 -7 -13 -7 -21 0 -12 3 -12 15 -2 8 7 15 16 15 21 0
11 -14 12 -23 2z"/>
<path d="M920 499 c0 -11 5 -17 10 -14 6 3 10 13 10 21 0 8 -4 14 -10 14 -5 0
-10 -9 -10 -21z"/>
<path d="M960 500 c-6 -11 -7 -20 -2 -20 10 0 32 21 32 32 0 16 -19 8 -30 -12z"/>
<path d="M638 393 c7 -3 16 -2 19 1 4 3 -2 6 -13 5 -11 0 -14 -3 -6 -6z"/>
<path d="M946 123 c-11 -26 -35 -64 -54 -85 -30 -34 -32 -38 -14 -38 27 0 75
62 95 123 21 64 -1 64 -27 0z"/>
<path d="M990 29 c0 -5 5 -7 10 -4 6 3 10 8 10 11 0 2 -4 4 -10 4 -5 0 -10 -5
-10 -11z"/>
</g>
</svg>
